<?xml version="1.0" encoding="UTF-8"?>
<!DOCTYPE svg PUBLIC "-//W3C//DTD SVG 1.1//EN" "http://www.w3.org/Graphics/SVG/1.1/DTD/svg11.dtd">
<svg xmlns="http://www.w3.org/2000/svg" version="1.1" width="50px" height="50px" style="shape-rendering:geometricPrecision; text-rendering:geometricPrecision; image-rendering:optimizeQuality; fill-rule:evenodd; clip-rule:evenodd" xmlns:xlink="http://www.w3.org/1999/xlink">
<g><path style="opacity:0.681" fill="#000000" d="M 19.5,1.5 C 20.8333,1.5 22.1667,1.5 23.5,1.5C 23.5,2.83333 23.5,4.16667 23.5,5.5C 19.56,6.23399 18.2266,4.90066 19.5,1.5 Z"/></g>
<g><path style="opacity:0.732" fill="#000000" d="M 15.5,3.5 C 17.337,3.63945 17.6704,4.30612 16.5,5.5C 15.7025,5.04311 15.3691,4.37644 15.5,3.5 Z"/></g>
<g><path style="opacity:0.762" fill="#000000" d="M 11.5,5.5 C 13.337,5.63945 13.6704,6.30612 12.5,7.5C 11.7025,7.04311 11.3691,6.37644 11.5,5.5 Z"/></g>
<g><path style="opacity:0.507" fill="#000000" d="M 7.5,8.5 C 8.67504,8.28099 9.67504,8.61432 10.5,9.5C 8.94835,10.7979 7.94835,10.4646 7.5,8.5 Z"/></g>
<g><path style="opacity:0.828" fill="#000000" d="M 17.5,8.5 C 20.8499,8.33499 24.1832,8.50166 27.5,9C 28.3333,9.83333 29.1667,10.6667 30,11.5C 33.1994,8.87054 36.1994,9.20388 39,12.5C 39.0705,18.0185 38.5705,23.5185 37.5,29C 37.7219,31.9436 38.3885,34.777 39.5,37.5C 42.9478,34.8418 43.9478,35.6751 42.5,40C 39.5,40.6667 36.5,40.6667 33.5,40C 31.5125,38.6811 30.3459,36.8477 30,34.5C 23.9163,41.6209 17.2496,42.2876 10,36.5C 7.29713,27.6763 8.29713,19.343 13,11.5C 14.6516,10.6006 16.1516,9.60064 17.5,8.5 Z M 22.5,11.5 C 24.9032,11.393 26.7365,12.393 28,14.5C 29.9797,20.6011 29.6463,26.6011 27,32.5C 25.2125,34.9576 22.8792,36.6242 20,37.5C 19.0546,37.0946 18.3879,36.428 18,35.5C 17.3333,30.1667 17.3333,24.8333 18,19.5C 18.7384,16.3515 20.2384,13.6848 22.5,11.5 Z"/></g>
<g><path style="opacity:0.766" fill="#000000" d="M 42.5,10.5 C 43.8333,10.5 45.1667,10.5 46.5,10.5C 46.5,11.8333 46.5,13.1667 46.5,14.5C 45.1667,14.5 43.8333,14.5 42.5,14.5C 42.5,13.1667 42.5,11.8333 42.5,10.5 Z"/></g>
<g><path style="opacity:0.505" fill="#000000" d="M 4.5,12.5 C 5.67504,12.281 6.67504,12.6143 7.5,13.5C 5.94835,14.7979 4.94835,14.4646 4.5,12.5 Z"/></g>
<g><path style="opacity:0.503" fill="#000000" d="M 3.5,16.5 C 4.67504,16.281 5.67504,16.6143 6.5,17.5C 4.94835,18.7979 3.94835,18.4646 3.5,16.5 Z"/></g>
<g><path style="opacity:0.502" fill="#000000" d="M 41.5,16.5 C 42.675,16.281 43.675,16.6143 44.5,17.5C 42.9483,18.7979 41.9483,18.4646 41.5,16.5 Z"/></g>
<g><path style="opacity:0.504" fill="#000000" d="M 2.5,20.5 C 3.67504,20.281 4.67504,20.6143 5.5,21.5C 3.94835,22.7979 2.94835,22.4646 2.5,20.5 Z"/></g>
<g><path style="opacity:0.503" fill="#000000" d="M 41.5,20.5 C 42.675,20.281 43.675,20.6143 44.5,21.5C 42.9483,22.7979 41.9483,22.4646 41.5,20.5 Z"/></g>
<g><path style="opacity:0.752" fill="#000000" d="M 2.5,24.5 C 4.33702,24.6395 4.67036,25.3061 3.5,26.5C 2.70245,26.0431 2.36912,25.3764 2.5,24.5 Z"/></g>
<g><path style="opacity:0.766" fill="#000000" d="M 41.5,24.5 C 43.337,24.6395 43.6704,25.3061 42.5,26.5C 41.7025,26.0431 41.3691,25.3764 41.5,24.5 Z"/></g>
<g><path style="opacity:0.642" fill="#000000" d="M 39.5,27.5 C 41.5,27.5 43.5,27.5 45.5,27.5C 45.2993,31.35 43.4659,32.35 40,30.5C 39.5172,29.552 39.3505,28.552 39.5,27.5 Z"/></g>
<g><path style="opacity:0.76" fill="#000000" d="M 2.5,28.5 C 4.33702,28.6395 4.67036,29.3061 3.5,30.5C 2.70245,30.0431 2.36912,29.3764 2.5,28.5 Z"/></g>
<g><path style="opacity:0.504" fill="#000000" d="M 2.5,32.5 C 3.67504,32.281 4.67504,32.6143 5.5,33.5C 3.94835,34.7979 2.94835,34.4646 2.5,32.5 Z"/></g>
<g><path style="opacity:0.503" fill="#000000" d="M 3.5,36.5 C 4.67504,36.281 5.67504,36.6143 6.5,37.5C 4.94835,38.7979 3.94835,38.4646 3.5,36.5 Z"/></g>
<g><path style="opacity:0.506" fill="#000000" d="M 6.5,39.5 C 8.46455,39.9483 8.79789,40.9483 7.5,42.5C 6.61432,41.675 6.28099,40.675 6.5,39.5 Z"/></g>
<g><path style="opacity:0.764" fill="#000000" d="M 9.5,42.5 C 11.337,42.6395 11.6704,43.3061 10.5,44.5C 9.70245,44.0431 9.36912,43.3764 9.5,42.5 Z"/></g>
<g><path style="opacity:0.643" fill="#000000" d="M 16.5,42.5 C 20.35,42.7007 21.35,44.5341 19.5,48C 18.552,48.4828 17.552,48.6495 16.5,48.5C 16.5,46.5 16.5,44.5 16.5,42.5 Z"/></g>
<g><path style="opacity:0.75" fill="#000000" d="M 13.5,44.5 C 15.337,44.6395 15.6704,45.3061 14.5,46.5C 13.7025,46.0431 13.3691,45.3764 13.5,44.5 Z"/></g>
</svg>
